PathFileType	4	(x/y/z)	S10_PSF_T03
DataRate	CameraRate	NumFrames	NumMarkers	Units	OrigDataRate	OrigDataStartFrame	OrigNumFrames
240	240	4	51	mm	240	221	440
Frame#	Time	Sternum			R.Acromium			L.Acromium			Top.Head			R.ASIS			L.ASIS			R.PSIS			L.PSIS			R.Great.Tro			L.Great.Tro			R.Iliac.Crest			L.Iliac.Crest			V.Sacral			R.Thigh.Upper.Post			R.Thigh.Lower.Ant			R.Thigh.Lower.Post			R.Thigh.Upper.Ant			R.Knee.Lat			R.Knee.Med			R.Shank.Upper.Post			R.Shank.Lower.Ant			R.Shank.Lower.Post			R.Shank.Upper.Ant			R.Ankle.Lat			R.Ankle.Med			R.Heel.Upper			R.Heel.Med			R.Heel.Lat			R.Toe.Lat			R.Toe.Med			R.Toe.Tip			L.Thigh.Upper.Post			L.Thigh.Lower.Ant			L.Thigh.Lower.Post			L.Thigh.Upper.Ant			L.Knee.Lat			L.Knee.Med			L.Shank.Upper.Post			L.Shank.Lower.Ant			L.Shank.Lower.Post			L.Shank.Upper.Ant			L.Ankle.Lat			L.Ankle.Med			L.Heel.Upper			L.Heel.Med			L.Heel.Lat			L.Toe.Lat			L.Toe.Med			L.Toe.Tip			Cervical.Spine			Back			
		X1	Y1	Z1	X2	Y2	Z2	X3	Y3	Z3	X4	Y4	Z4	X5	Y5	Z5	X6	Y6	Z6	X7	Y7	Z7	X8	Y8	Z8	X9	Y9	Z9	X10	Y10	Z10	X11	Y11	Z11	X12	Y12	Z12	X13	Y13	Z13	X14	Y14	Z14	X15	Y15	Z15	X16	Y16	Z16	X17	Y17	Z17	X18	Y18	Z18	X19	Y19	Z19	X20	Y20	Z20	X21	Y21	Z21	X22	Y22	Z22	X23	Y23	Z23	X24	Y24	Z24	X25	Y25	Z25	X26	Y26	Z26	X27	Y27	Z27	X28	Y28	Z28	X29	Y29	Z29	X30	Y30	Z30	X31	Y31	Z31	X32	Y32	Z32	X33	Y33	Z33	X34	Y34	Z34	X35	Y35	Z35	X36	Y36	Z36	X37	Y37	Z37	X38	Y38	Z38	X39	Y39	Z39	X40	Y40	Z40	X41	Y41	Z41	X42	Y42	Z42	X43	Y43	Z43	X44	Y44	Z44	X45	Y45	Z45	X46	Y46	Z46	X47	Y47	Z47	X48	Y48	Z48	X49	Y49	Z49	X50	Y50	Z50	X51	Y51	Z51	

221	0.91667	-243.81	1287.9	330.19	-355.74	1438.2	494.41	-373.51	1469.5	188.17	-422.84	1752.1	365.84	-297.43	1016.6	444.04	-306.99	1028.3	214.28	-502.81	1036	364.6	-499.97	1041.1	283.73	-365.86	940.94	519.59	-372.01	961.61	159.73	-390.55	1098.8	489.66	-374.11	1102.2	189.97	-522.72	1004.3	329.24	-349.53	726.96	503.61	-294.13	652.5	462.77	-356.34	638.67	489.19	-286.22	742.06	470.84	-363.65	513.86	445.3	-377.19	523.43	319.38	-455.28	293.88	440.68	-396.26	225.98	423.32	-460.85	220.19	432.68	-384.31	301.98	430.97	-455.24	111.79	407.66	-441.18	125.95	329.95	-520.65	66.553	361.44	-508.71	37.411	335.06	-514.78	42.492	396.63	-344.13	39.994	446.53	-311.17	43.243	337.52	-254.48	58.814	382.22	-310.11	681.49	159.47	-207.87	635.02	161.96	-271.23	594.8	176.16	-241.51	717.43	145.04	-222.69	532.56	174.18	-173.98	527.12	299.43	-380.06	397.44	194.34	-375.21	287.07	190.03	-420.02	331.1	202.01	-334.92	352.52	182.47	-466.09	211.57	207.71	-433.23	205.5	286.48	-525.65	221.76	263.52	-531.67	187.66	294.58	-544.48	197.81	232.05	-422.56	85.066	165.59	-380.7	67.214	264.56	-337.41	52.272	209.86	-444.38	1505.3	356.8	-528.58	1299.3	340
222	0.92083	-238.92	1288.3	330.37	-350.01	1439	494.59	-368.83	1469.7	188.43	-417.59	1752.4	365.71	-292.59	1016.5	444.45	-302.28	1028.8	214.71	-497.98	1036.2	364.91	-495.23	1041.5	284.05	-361.31	940.74	519.8	-366.91	962.46	159.8	-385.34	1098.7	490.13	-369.39	1102.7	190.43	-517.9	1004.5	329.5	-346.67	726.81	503.65	-291.81	651.97	463.04	-354.24	638.6	489.2	-283.21	741.41	471.13	-362.77	513.84	445.54	-375.87	523.43	319.51	-454.99	294.12	440.72	-396.07	226.12	423.44	-460.7	220.46	432.71	-383.99	302.1	431.18	-455.13	111.92	407.65	-441.14	126.14	329.97	-520.67	66.643	361.38	-508.72	37.448	335.01	-514.75	42.587	396.61	-344.11	39.976	446.53	-311.17	43.194	337.5	-254.44	58.704	382.2	-303.24	682.65	159.25	-200.86	636.79	162.41	-263.93	596.2	176.13	-234.83	719.07	145.27	-214.9	534	174.67	-166.71	529.38	299.92	-369.75	395.25	194.5	-362.44	285.04	190.43	-408.24	328.05	202.17	-323.61	351.34	182.84	-451.53	207.39	207.89	-418.81	202.27	286.78	-511.85	215.92	263.54	-516.93	181.62	294.59	-529.81	191.37	232.07	-404.29	82.299	165.99	-362.23	65.759	265.09	-318.36	52.045	210.54	-439.21	1505.6	357.23	-523.56	1299.7	340.9
223	0.925	-234.01	1288.6	330.57	-344.3	1439.6	494.77	-364.13	1469.8	188.69	-412.33	1752.6	365.57	-287.74	1016.3	444.84	-297.56	1029.2	215.12	-493.15	1036.4	365.2	-490.48	1041.7	284.34	-356.78	940.5	520.01	-361.79	963.23	159.86	-380.1	1098.5	490.58	-364.66	1103.1	190.88	-513.07	1004.7	329.74	-343.82	726.65	503.7	-289.51	651.42	463.28	-352.13	638.51	489.23	-280.2	740.76	471.42	-361.88	513.81	445.78	-374.52	523.41	319.65	-454.68	294.35	440.78	-395.87	226.27	423.55	-460.53	220.72	432.77	-383.65	302.23	431.39	-455.02	112.06	407.65	-441.08	126.32	329.99	-520.66	66.73	361.33	-508.73	37.487	334.97	-514.72	42.683	396.58	-344.1	39.956	446.54	-311.17	43.148	337.48	-254.4	58.591	382.2	-296.45	683.74	159.06	-193.96	638.45	162.89	-256.76	597.52	176.14	-228.23	720.61	145.52	-207.23	535.36	175.18	-159.59	531.54	300.43	-359.42	392.93	194.64	-349.59	282.96	190.82	-396.39	324.9	202.3	-312.27	350.09	183.2	-436.8	203.14	208.04	-404.25	198.99	287.06	-497.84	209.99	263.51	-501.99	175.52	294.56	-514.91	184.87	232.06	-385.89	79.559	166.39	-343.67	64.36	265.63	-299.25	51.891	211.24	-434.02	1505.8	357.64	-518.53	1300.1	341.77
224	0.92917	-229.08	1288.9	330.77	-338.59	1440.2	494.95	-359.4	1469.9	188.94	-407.06	1752.8	365.41	-282.88	1016.1	445.19	-292.83	1029.6	215.52	-488.32	1036.5	365.47	-485.72	1042	284.61	-352.26	940.24	520.19	-356.66	963.94	159.91	-374.84	1098.4	491	-359.92	1103.5	191.31	-508.23	1004.8	329.96	-340.97	726.48	503.76	-287.21	650.84	463.48	-350	638.42	489.27	-277.19	740.09	471.72	-360.99	513.78	446.04	-373.13	523.38	319.81	-454.34	294.59	440.87	-395.65	226.42	423.65	-460.32	220.98	432.84	-383.28	302.36	431.59	-454.9	112.19	407.65	-441	126.51	330.02	-520.64	66.814	361.29	-508.73	37.527	334.93	-514.68	42.78	396.56	-344.09	39.934	446.54	-311.17	43.104	337.47	-254.35	58.476	382.19	-289.73	684.77	158.89	-187.19	640	163.41	-249.7	598.78	176.19	-221.7	722.05	145.79	-199.68	536.64	175.7	-152.62	533.59	300.96	-349.06	390.5	194.74	-336.66	280.82	191.2	-384.46	321.66	202.4	-300.9	348.76	183.56	-421.91	198.85	208.15	-389.55	195.67	287.34	-483.62	204	263.44	-486.83	169.39	294.5	-499.77	178.31	232.01	-367.37	76.859	166.79	-325.02	63.022	266.18	-280.09	51.814	211.94	-428.82	1506	358.04	-513.49	1300.3	342.62
